<?xml version="1.0" encoding="utf-8"?>
<!-- Generator: Adobe Illustrator 16.0.0, SVG Export Plug-In . SVG Version: 6.00 Build 0)  -->
<!DOCTYPE svg PUBLIC "-//W3C//DTD SVG 1.1//EN" "http://www.w3.org/Graphics/SVG/1.1/DTD/svg11.dtd">
<svg version="1.1" id="Layer_1" xmlns="http://www.w3.org/2000/svg" xmlns:xlink="http://www.w3.org/1999/xlink" x="0px" y="0px"
	 width="3186.362px" height="4158.586px" viewBox="1046.38 -2778.516 3186.362 4158.586"
	 enable-background="new 1046.38 -2778.516 3186.362 4158.586" xml:space="preserve">
<polyline points="1050.066,70 1142.434,43.32 1721.492,138.937 2102.531,187.334 2522.572,84.373 3173.638,52.32 3467.666,175.333 
	3608.68,84.684 3962.715,171.018 4232.742,117.012 4232.742,1379.076 1046.38,1380.07 "/>
<path d="M3679.104-702.632c20,9,26,40,26,54c0,3-1,14-3,20c-2,4-5,9-5,12c0,7,20,24,26,25c13,3,30,4,44,12c13,7,15,23,18,35
	c8,33,11,71,16,107c1,5,13,102,13,126l5,66v55l11,138c-1,37-1,23,0,35c0,8,1,21,1,24c0,2,2,16,2,18c0,13-27,8-28,8c-3,0-8,2-10,2
	c-11,0-23-6-31-9v18c-1,10-5,25-5,28c0,2,6,38,6,41c0,2-1,14-3,20c-2,2-6,3-9,4c-2,4-4,9-8,11c-9,5-25,9-27,9c-3,0-16-3-23-6
	c-3-1-3-5-3-7c0-3,0-8,2-10c4-8,11-14,15-21c3-6,5-13,8-20c1-5,0-12,0-15c0-2,3-14,3-17c0-2-3-5-3-8c-0.66-32.129-2.6-35.02-2.74-38
	c-0.07-1.559,0.36-3.15,1.74-9h-7c-11,4-20,11-31,9c0,0-1-1-1,2c0,2,3,23,3,26c0,10-8,17-8,21c0,2,5,36,5,39s-26,8-26,8
	c-2,0-6-4-8-4c-5,0-31,15-59,15c-2,0-17-2-26-3c-2,0-4-2-4-5c0-4,6-12,10-13c8-3,19-4,27-10c12-9,30-23,32-32v-8c0-9,5-9,5-11
	c0-3-3-4-3-6c-1-4,0-12,0-14c0-3-3-5-4-8c-5-4-11-3-17-3c-2,2-2,4-3,5c-3,1-8,2-11,2c-10,0-18-16-28-16h-27c1-25,3-48,3-51l12-109
	l1-230c1-10,3-27,3-30c0-2,4-25,6-37c4-22,9-45,14-67c0-2,1-5,1-8c2-13,15-24,27-32c0,0,39-18,39-32c0-2-7-14-10-21c-5-14-9-42-9-44
	c0-5,3-11,5-17c8-25,20-28,35-28C3670.104-706.632,3668.104-706.632,3679.104-702.632z"/>
<g>
	<path d="M2832.275-750.632c2,0,7-3,11-4c2-2,6-6,10-8c-2,6,6,13,12,13c2,0,7-2,13-4c1,1,1,0,1,2c0,3-4,10-4,12c0,3,7,10,9,10
		c3,0,5-1,7-2v3c-6,6-10,7-10,13c0,3,3,6,4,8c-2,2-9,5-9,7c0,3,6,11,6,14c0,4-3,15-7,18c-3,2-7,1-9,3c-11,10-15,24-15,35
		c0,3-1,5,0,7c2,4,7,7,10,11c5,6,9,13,14,20c5,5,9,13,15,20c4,5,11,7,14,12c5,6,9,14,11,22c3,10,2,22,6,33c5,16,18,36,22,52
		c1,7,18,20,24,25c9,7,19,15,28,22h20c10,8,30,15,30,28c0,7-15,20-20,24c-3,2-7,4-11,4c-2-1-2-5-4-7c-6-7-17-10-25-17
		c-5-3-9-8-14-12c-3-2-8-1-11-3c-20-7-58-23-60-23c-6,0-6,4-6,6s-1,17,3,26c10,24,25,47,35,70c2,3,67,156,67,183c0,12-19,10-24,11
		c-1,1-3,2-3,5c-1,13-2,26-7,38c-3,6-11,12-12,19c-3,13-2,41-2,43c0,16,5,19,22,37c6,7,16,5,24,7c6,2,14,3,21,7c4,3,7,11,7,16
		c0,3-2,8-5,11c-2,2-5,4-8,4c-12,2-27,4-37,4c-2,0-15,0-21-2c-7-2-17-7-20-7c-2,0-12,6-14,6c-8,0-30-9-31-15l1-85c-1,0-2-1-4-1
		c-3,0-9,2-14,3c-12,3-25,5-38,7c-11-20-15-40-19-60c-1-5,0-12-3-15c-7-9-27-22-27-24v-19c1-3,2-8,2-10c0-6-3-6-7-6
		c-16,0-34,45-35,48c-5,9-3,21-5,32c0,4-6,8-7,12c-2,3-1,9-2,13c-4,14-24,4-30,10c-13,12-23,28-31,43c-2,2-3,6-3,9c-3,20-6,44-14,65
		c-4,9-15,14-22,15c-4,1-11,1-13,1c-8,0-28,1-28-14c0-19,24-54,33-69c0-5,2-11,2-16c1-5,2-10,2-15c0-12,5-29,15-40c-5-5-21-15-16-22
		c0-4,1-8,0-12c-8,10-15,21-23,32c-11-4-22-9-33-12v-3c6-14,11-29,17-44c6-16,15-34,22-49c10-24,36-50,53-74c23-32,45-62,60-93
		c5-10,8-21,14-30c6-10,15-21,18-29c0-4,0-9,1-13v-23c-3-4-8-7-11-10c-6-4-4-10-4-14c0-8,0-10-5-10c-2,0-5,4-8,5c-2,1-6-1-8,0
		c-9,4-17,14-26,19c-10,5-23,19-30,28c-9,11-24,18-35,29c-4,3,1,9-5,13c-1,1-3,1-5,1c-3,0-4,0-5-1c-3-1-20-23-20-27c0-3,1-7,8-9
		c1-1,5,0,8,0c7-6,13-16,23-22c5-3,14-4,20-9c9-7,25-24,25-27c0-2-4-9-8-11c-5-3-11-1-17-2c-13-23-19-15-19-33c0-45,47-40,65-69
		c2-4,5-13,13-17c18-10,38-18,57-28c11-6,30-25,37-36v-8c0-16-11-19-11-29c0-7,4-11,7-18c1-2,0-4,0-7c0-2,3-8,3-12v-8c0-2,0-6,1-7
		c3,1,7,4,10,6c6-6,2-13,5-20C2824.275-760.632,2829.275-750.632,2832.275-750.632z"/>
	<path fill="#FF4D4D" d="M2825.775-588.132c60-50,120-102,181-153c18-15,73-64,78-64c3,0,6,2,6,5c0,8-124,112-167,149
		c-28,25-58,49-87,75C2833.775-579.132,2829.775-584.132,2825.775-588.132z"/>
	<path fill="#FF4D4D" d="M2609.275-377.632c-60,50-120,102-181,153c-18,15-73,64-78,64c-3,0-6-2-6-5c0-8,124-112,167-149
		c28-25,58-49,87-75C2601.275-386.632,2605.275-381.632,2609.275-377.632z"/>
</g>
<path d="M1764.483-665.63c27,7,21,37,26,56c5,18,14,37,22,55v3c-10,2-20,3-31,3v6c15,7,29,15,45,21c6,3,14,3,21,6c26,13,36,41,36,62
	c0,16,10,31,15,48c2,5,2,12,4,18c10,25,15,54,19,79c1,5,3,10,4,15c0,7,1,20,1,22c0,3-1,5-1,7c0,5,1,11,0,16c0,3-3,6-3,9
	c0,12,26,48,33,54c32,30,69,55,104,62c11,2,35,4,38,4c29,0,112-11,112-48c0-10-11-21-19-32c-4-6-11-14-17-20c-8-8-9-23-10-31
	c0,0,0-1,1-2c4,11,9,29,22,39c4,4,10,4,15,6c9,3,14,15,17,24c7,18,6,22,6,34c0,3,7,34,7,36l-1,3h-12c-5-1-14-4-16-4c-3,0-6,1-8,5
	c-7,9-5,20-6,30c0,5-2,10-3,15c-6,23-36,34-54,36c-13,1-25,5-38,6c-9,1-19,2-28,3c-6,1-13,0-18,1c-12,2-15,13-15,22c0,2,2,9,2,11
	c0,16-33,43-42,54c-2,2-11,6-14,6c-14,0-9-18-18-20c-3-1-9,1-11,1c-51,0-77-35-94-35h-33c-5,9-11,17-12,27c-2,15-1,19-1,20l10,64
	c-3,8-2,34-20,34c-3,0-3-2-5-2c-20,0-21-27-21-38v-29c-1-1-3-4-5-7c-4-6-5-16-5-23c0-2,1-25,1-28c0-2,2-5,3-8c-1-1-1-2-4-2
	c-2,0-5,1-8,3c-4,14-3,30-4,44c0,2-1,4-1,7c0,2,1,8,2,12c1,1-1,5,0,7c0,2,3,3,3,5c0,3-2,3-2,5c0,3,3,8,3,12c0,31,1,33,1,35s-3,4-5,8
	c-2,2,0,8-3,10c-7,5-17,3-24,3c-10,0-23,3-23-11c0-2,9-27,13-41c1-33,1-34,1-37c0-5-13-39-14-43c-5-13-6-27-12-39c-2-5-8-8-13-11
	c-10-6-20-11-30-15c-14-6-29-15-44-22c-6-3-16-4-18-4c-22,0-36,21-61,38c-5,3-11,5-16,5c-4,1-10,0-13,1c-9,3-22,9-24,9
	c-21,0-46-50-72-50c-2,0-10,2-12,2c-10,0-33-9-35-13c-3-7-5-16-9-23c-1-3-5-8-5-10c0-3,3-11,5-16v-9c-1,0-1-1-3-1c-3,0-32,18-35,18
	c-2,0-4-3-6-3c-5-2-11,0-15-2c-5-1-8-6-11-9c-6-6-13-12-17-18c0-1,0-2,3-2h20c6-1,11-3,16-3c51-5,93-62,122-86c6-5,13-12,20-18
	c15-18,30-37,43-54c8-11,20-23,29-35c7-11,11-24,18-34c29-48,52-96,100-140c3-3,5-9,9-11c13-12,30-18,45-24c10-4,20-10,30-13v-3
	c-6,0-15,1-18,1c-6,0-14,1-14-5c0-2,11-36,17-54c1-3,1-7,1-10c0-5,1-11,2-17c0-16,20-36,36-35c3,0,6-2,9-2
	C1746.483-669.63,1757.483-667.63,1764.483-665.63z"/>
<path fill-rule="evenodd" clip-rule="evenodd" d="M2025.342-1651.893c4.171,13.886,9.733,29.314,13.904,44.744
	c12.514,40.115,25.027,81.773,37.542,124.973c2.781,9.258,2.781,23.144,4.171,35.486c8.343,63.258,26.418,185.146,26.418,188.231
	c0,6.171-4.171,9.257-6.952,9.257s-22.247-7.714-31.98-10.8c-2.781,0-6.952-3.086-9.733-4.629
	c-13.904-58.629-29.199-118.802-45.884-177.431c-4.171,0-11.124-1.543-13.904,1.543c-9.733,4.628-18.076,13.886-26.418,18.514
	c-2.781,1.543-6.952,1.543-8.342,3.086c-23.637,13.886-29.199,13.886-29.199,30.857c0,13.886-31.98,29.315-34.761,29.315
	c-4.171,1.543-11.124,1.543-13.904,1.543c-4.171,0-13.904-1.543-20.856-3.086c-4.171,0-9.733-3.085-12.514-4.628
	c-5.562-3.086,1.39-6.172-13.904-12.343c-6.952-3.085-19.466-3.085-23.637-3.085c-2.781,0-2.781,6.171-5.562,6.171
	c-4.171,0-19.466-3.086-29.199-6.171c-2.781,0-5.562-3.086-9.733-3.086c-1.391,0-16.685-1.543-18.076,10.8l20.856,178.974
	c-2.781,9.257-23.637,23.144-30.589,26.229c-5.562-10.8-11.123-23.143-13.904-35.486c-11.123-38.572-18.075-78.688-29.199-115.717
	c-9.733-38.572-22.247-84.858-26.418-121.887c-1.391-18.515-4.171-37.029-6.952-52.458c-1.391-15.429-2.781-33.943-5.562-49.372
	c-1.39-16.972-6.952-47.83-6.952-50.916c0-9.257-1.39-12.343,8.343-12.343c2.781,0,29.199,6.172,36.151,18.515
	c15.295,23.144,18.076,55.544,25.028,86.402c4.171,15.429,15.295,81.772,26.418,81.772c6.952,0,15.295-12.342,16.685-12.342
	c8.343-6.171,23.637-16.972,36.151-20.058c16.686-4.628,30.59-33.943,38.932-40.115c2.781-3.086,9.733-3.086,13.904-6.172
	c1.39,0,4.171-3.085,4.171-4.628c4.171-1.543,9.733-3.086,13.904-3.086c2.781,0,2.781,4.629,6.952,4.629
	c2.781,0,5.562-3.086,8.342-3.086c4.171,0,18.076,12.343,27.809,13.886c15.294,4.628,34.761,4.628,52.836,6.171
	c5.562,0,15.295,6.171,19.466,6.171c1.39,0,13.904-4.629,16.685-13.886l-22.247-155.832c0-7.714,26.418-35.486,27.809-35.486
	C2018.39-1682.75,2025.342-1653.436,2025.342-1651.893z"/>
<path fill-rule="evenodd" clip-rule="evenodd" d="M3610.308-2351.828l9.034,3.803c-6.646,0.039-7.349,1.587-7.32,1.599
	C3612.052-2346.413,3612.637-2347.55,3610.308-2351.828z M3391.096-2770.276c1.11,5.786,4.204,19.497,2.936,22.508
	c-6.971,16.566-22.746-0.71-27.816,11.338c-2.535,6.024,51.133,76.476,74.914,104.213c1.744,4.279,10.541,4.436,15.297,9.984
	c6.264,6.181,14.746,23.934,19.265,25.835c3.014,1.267,24.411-7.454,32.337-9.437c2.139-0.872,8.796,0.157,14.582-0.953
	c7.927-1.983,38.676-24.497,53.734-18.158c12.048,5.071,16.729,31.859,12.292,42.4c-5.705,13.555-44.779,9.519-51.2,12.134
	c-3.645,0.239-5.546,4.756-9.826,6.501c-4.914,3.25-14.979,6.105-23.539,9.594c1.746,4.279,1.588,13.077,4.6,14.344
	c4.518,1.903,17.99-4.837,21.003-3.569c4.517,1.901,30.201,25.121,34.72,27.022c3.011,1.267,32.574-5.791,49.297-7.616
	c1.506,0.634,3.646-0.239,6.42-2.616c11.728-11.02,29.72-15.855,37.249-12.688c4.518,1.902,3.884,3.408,6.261,6.182
	c7.374,11.966,10.467,25.677,7.298,33.207c-8.239,19.579-49.06,11.262-55.874,19.032c-2.774,2.377-5.943,9.908-9.351,13.792
	l-1.901,4.519c6.023,2.534,14.188,4.198,18.945,9.745c5.39,4.041,5.47,16.485,12.366,21.16
	c20.054,15.532,62.699,40.571,67.218,42.472c3.012,1.269,4.518,1.902,8.164,1.664c16.723-1.826,42.639-8.645,45.65-7.377
	c9.037,3.803,12.129,17.514,10.229,22.032c-4.438,10.542-20.289,14.508-21.557,17.519c-1.268,3.012,1.35,9.432,0.081,12.444
	c-1.9,4.518-61.421,23.786-65.938,21.885c-17.835-3.96-36.777-13.706-55.559,1.435l39.722,103.583
	c5.786-1.111,10.065-2.855,14.585-0.953c6.023,2.535,4.598,14.345,3.331,17.356c-1.902,4.519-9.112,17.438-16.165,21.561
	c-29.72,15.856-69.348,25.769-103.585,39.724c-3.013-1.268-9.037-3.803-11.176-2.931c-21.638,5.076-38.519,15.698-59.282,22.914
	c-14.978,6.104-79.89,21.332-82.425,27.356c-1.9,4.519,1.35,9.431-0.552,13.95c-1.268,3.011-6.814,7.768-11.729,11.018
	c-2.377-2.773-4.361-10.699-5.472-16.485c-10.938,0.716-31.702,7.931-34.713,6.663c-6.024-2.535-3.489-8.559-2.856-10.064
	c1.902-4.519,13.474-6.74,15.376-11.257c1.267-3.013-1.11-5.786,0.157-8.799c6.972-16.564,18.467,2.455,30.039,0.234
	c16.723-1.826,38.755-12.053,56.507-20.536c30.591-13.716,59.914-24.42,89.239-35.124c-0.873-2.141-3.25-4.914-1.981-7.926
	c5.703-13.554,24.171-11.1,35.743-13.321c-9.833-27.184-54.547-106.277-60.569-108.813c-3.012-1.268-10.066,2.855-11.335,5.868
	c-1.9,4.518,0.479,7.291-1.422,11.809c-1.27,3.012-7.451,9.274-12.997,14.03l-4.52-1.901c-0.237-3.646-1.348-9.432-2.458-15.217
	c-8.164-1.663-25.678,10.465-33.21,7.297c-4.517-1.901-6.261-6.182-4.358-10.699c1.266-3.013,13.471-6.739,15.374-11.258
	c1.267-3.011-0.478-7.291,1.425-11.809c1.267-3.013,3.407-3.883,4.04-5.39c17.357-3.332,11.812,1.424,25.998,5.623
	c1.506,0.634,5.152,0.396,9.432-1.348c-4.123-7.053-9.118-16.247-15.379-22.428c-2.379-2.773-7.532-3.169-8.402-5.309
	c-1.507-0.634-2.617-6.42-5.628-7.688c-4.519-1.901-11.571,2.221-17.358,3.331c-5.785,1.11-13.948-0.552-18.467-2.454
	c-13.554-5.704-23.782-27.736-18.077-41.291c1.269-3.012,6.181-6.262,11.096-9.512c0,0,0.634-1.506-2.379-2.773
	c-4.518-1.901-7.292,0.476-10.303-0.792c-6.659-1.029-15.061-6.338-20.846-5.228c-74.58,12.93-148.923,29.507-222.63,44.576
	c-13.711,3.093-32.574,5.791-49.059,11.263c-7.292,0.477-11.968,7.372-16.247,9.117c-14.344,4.599-84.883,12.139-102.956,4.533
	c-9.035-3.803-11.89-13.869-8.72-21.398c3.803-9.036,52.541-36.387,56.188-36.625c5.786-1.11,18.861-2.698,26.788-4.681
	c65.066-24.025,169.129-56.457,239.901-94.034c-0.24-3.646-3.49-8.561-7.375-11.968c-0.871-2.14-4.517-1.902-7.529-3.169
	c-10.543-4.437-29.724-17.829-32.735-19.097c-4.52-1.901-16.09,0.32-21.875,1.43c-10.938,0.715-21.004,3.57-29.324,10.704
	c-2.774,2.379-6.815,7.769-11.096,9.513c-9.826,6.501-15.692-4.831-23.618-2.85c-46.286,8.883-91.222,27.198-135.764,40.362
	c-1.268,3.012-1.664,8.163-2.93,11.176c-3.17,7.529-10.857,13.158-13.868,11.891c-4.52-1.902-4.601-14.345-7.612-15.613
	c-4.518-1.901-25.679,10.466-30.195,8.565c-3.012-1.269-7.135-8.321-5.867-11.334c1.268-3.011,9.827-6.5,13.234-10.384
	c2.774-2.377,2.535-6.023,4.437-10.542c8.874-21.084,18.863-2.697,32.812-2.146c3.012,1.269,7.291-0.476,9.433-1.348
	c9.431-1.349,20.13-5.709,30.196-8.564c7.925-1.983,14.739-9.751,20.525-10.862c24.173-11.1,53.339-13.006,78.383-21.965
	c1.187-15.456,20.683-19.659,35.901-22.118c-0.239-3.646-2.617-6.419-0.716-10.937c2.535-6.024,83.929-26.722,88.447-24.821
	c3.014,1.268,7.135,8.32,10.147,9.589c4.518,1.901,24.729,8.635,35.904,11.566c0,0,2.141-0.872,2.773-2.378l-75.155-141.543
	c-7.293,0.477-15.062-6.338-22.352-5.862c-10.305-0.79-22.272,6.581-33.843,8.803c-17.357,3.332-96.852,19.511-99.387,25.536
	c-1.9,4.518,0.082,12.444-1.186,15.456c-1.901,4.518-8.321,7.135-12.601,8.879c-4.757-5.548-5.472-16.484-9.99-18.386
	c-4.517-1.901-22.269,6.581-29.801,3.413c-4.517-1.902-6.261-6.182-4.993-9.194s14.105-8.245,17.752-8.483
	c-0.237-3.646-0.477-7.291,1.425-11.809c1.9-4.52,15.612-7.611,17.119-6.978c4.519,1.901,7.134,8.321,10.146,9.588
	c18.072,7.606,74.104-20.222,87.814-23.314c15.852-3.965,35.347-8.168,51.831-13.64c2.775-2.378,3.171-7.53,3.805-9.037
	c5.942-9.907,24.807-12.604,36.377-14.826c22.271-6.581,35.98-9.674,61.264-14.988c7.926-1.983,10.542,4.437,16.089-0.319
	c2.774-2.378,4.675-6.896,4.438-10.542L3391.096-2770.276z"/>
<path fill-rule="evenodd" clip-rule="evenodd" d="M2474.929-1756.096c-1.18,8.444-2.01,18.101-3.562,27.346
	c-3.168,24.532-6.709,49.864-10.621,75.997c-0.787,5.63-4.133,12.837-6.383,19.655c-10.909,35.306-30.89,103.928-31.633,105.529
	c-1.487,3.203-4.396,3.566-5.839,2.741c-1.443-0.825-9.688-10.602-13.997-15.09c-1.443-0.824-2.864-3.664-3.936-5.29
	c6.907-34.553,13.464-70.319,18.928-105.697c-2.165-1.237-5.401-4.1-7.588-3.324c-6.167-0.484-12.727,1.846-18.17,1.773
	c-1.815-0.025-3.98-1.262-5.074-0.873c-15.612,0.196-18.5-1.454-22.587,7.354c-3.345,7.208-23.66,5.729-25.103,4.904
	c-2.537-0.436-6.145-2.498-7.588-3.323c-2.165-1.237-6.845-4.925-10.081-7.789c-2.165-1.237-4.309-4.489-5.38-6.114
	c-2.143-3.251,2.208-2.791-4.243-10.531c-2.865-3.663-9.359-7.375-11.524-8.612c-1.443-0.825-2.93,2.378-4.374,1.553
	c-2.165-1.237-9.36-7.375-13.667-11.864c-1.443-0.825-2.144-3.251-4.308-4.489c-0.723-0.412-8.289-5.75-11.984,0.244l-32.289,99.075
	c-3.673,3.979-17.844,5-22.195,4.54c-0.284-7.255-0.198-15.312,1.332-22.542c3.519-23.318,9.574-46.2,12.721-68.718
	c4.24-22.906,8.896-50.641,15.652-71.096c3.737-10.021,6.755-20.456,9.027-29.288c2.996-8.42,6.734-18.441,9.008-27.274
	c3.366-9.221,7.914-26.886,8.657-28.488c2.23-4.805,2.251-6.818,7.303-3.931c1.443,0.824,13.668,11.864,14.303,20.332
	c2.362,16.548-4,34.19-7.824,52.267c-1.552,9.245-11.76,46.977-5.988,50.275c3.609,2.063,10.912-1.869,11.634-1.456
	c5.816-0.729,16.356-1.797,23.594,0.313c9.774,2.546,24.052-8.543,29.869-9.272c2.187-0.777,5.794,1.285,8.703,0.921
	c0.722,0.412,2.909-0.364,3.281-1.166c2.536,0.437,5.794,1.286,7.959,2.523c1.444,0.825,0.329,3.228,2.494,4.465
	c1.443,0.824,3.631,0.047,5.073,0.873c2.165,1.237,6.408,11.768,11.087,15.456c6.823,6.938,16.926,12.713,25.936,18.875
	c2.887,1.65,6.452,7.74,8.616,8.977c0.722,0.413,8.332,1.722,12.005-2.257l25.992-87.477c1.859-4.003,22.259-10.581,22.981-10.168
	C2478.754-1774.174,2475.3-1756.897,2474.929-1756.096z"/>
</svg>
